<?xml version="1.0" encoding="iso-8859-1"?>
<!-- Generator: Adobe Illustrator 19.0.0, SVG Export Plug-In . SVG Version: 6.00 Build 0)  -->
<svg version="1.1" id="Capa_1" xmlns="http://www.w3.org/2000/svg" xmlns:xlink="http://www.w3.org/1999/xlink" x="0px" y="0px"
	 viewBox="0 0 512 512" style="enable-background:new 0 0 512 512;" xml:space="preserve">
<polygon style="fill:#FF421D;" points="140.631,62.245 0,185.289 0,511.884 512,511.884 512,185.289 369.019,62.245 "/>
<polygon style="fill:#DE0418;" points="512,185.289 369.019,62.245 256,62.245 256,511.884 512,511.884 "/>
<rect x="80.19" y="0.039" style="fill:#EBEBEC;" width="351.61" height="415.22"/>
<rect x="256" y="0.039" style="fill:#E2E2E6;" width="175.81" height="415.22"/>
<polygon style="fill:#A3021A;" points="256,401.288 0,185.289 0,511.961 512,511.961 512,185.289 "/>
<polygon style="fill:#870215;" points="256,401.288 256,511.961 512,511.961 512,185.289 "/>
<polygon style="fill:#DE0418;" points="256,401.288 173.96,332.067 0,511.961 512,511.961 338.04,332.067 "/>
<polygon style="fill:#A3021A;" points="256,401.288 256,511.961 512,511.961 338.04,332.067 "/>
<polygon style="fill:#FFDB0C;" points="256,87.658 284.127,144.65 347.021,153.789 301.511,198.15 312.254,260.79 256,231.216 
	199.746,260.79 210.489,198.15 164.979,153.789 227.873,144.65 "/>
<polygon style="fill:#FBBF00;" points="256,87.658 284.127,144.65 347.021,153.789 301.511,198.15 312.254,260.79 256,231.216 "/>
<g>
</g>
<g>
</g>
<g>
</g>
<g>
</g>
<g>
</g>
<g>
</g>
<g>
</g>
<g>
</g>
<g>
</g>
<g>
</g>
<g>
</g>
<g>
</g>
<g>
</g>
<g>
</g>
<g>
</g>
</svg>
