<?xml version="1.0" encoding="iso-8859-1"?>
<!-- Generator: Adobe Illustrator 19.0.0, SVG Export Plug-In . SVG Version: 6.00 Build 0)  -->
<svg version="1.1" id="Layer_1" xmlns="http://www.w3.org/2000/svg" xmlns:xlink="http://www.w3.org/1999/xlink" x="0px" y="0px"
	 viewBox="0 0 469.333 469.333" style="enable-background:new 0 0 469.333 469.333;" xml:space="preserve">
<g>
	<g>
		<g>
			<path d="M117.333,128c-5.896,0-10.667,4.771-10.667,10.667v64c0,5.885-4.792,10.667-10.667,10.667s-10.667-4.781-10.667-10.667
				c0-5.896-4.771-10.667-10.667-10.667S64,196.771,64,202.667c0,17.646,14.354,32,32,32c17.646,0,32-14.354,32-32v-64
				C128,132.771,123.229,128,117.333,128z"/>
			<path d="M181.333,128c-17.646,0-32,14.354-32,32v42.667c0,17.646,14.354,32,32,32c17.646,0,32-14.354,32-32V160
				C213.333,142.354,198.979,128,181.333,128z M192,202.667c0,5.885-4.792,10.667-10.667,10.667s-10.667-4.781-10.667-10.667V160
				c0-5.885,4.792-10.667,10.667-10.667S192,154.115,192,160V202.667z"/>
			<path d="M298.667,160c0-17.646-14.354-32-32-32h-21.333c-5.896,0-10.667,4.771-10.667,10.667V224
				c0,5.896,4.771,10.667,10.667,10.667h21.333c17.646,0,32-14.354,32-32c0-8.188-3.083-15.667-8.167-21.333
				C295.583,175.667,298.667,168.187,298.667,160z M266.667,213.333H256V192h10.667c5.875,0,10.667,4.781,10.667,10.667
				S272.542,213.333,266.667,213.333z M266.667,170.667H256v-21.333h10.667c5.875,0,10.667,4.781,10.667,10.667
				C277.333,165.885,272.542,170.667,266.667,170.667z"/>
			<path d="M466.208,451.125L316.681,301.587c28.503-32.043,45.986-74.095,45.986-120.254C362.667,81.344,281.312,0,181.333,0
				S0,81.344,0,181.333s81.354,181.333,181.333,181.333c46.161,0,88.22-17.486,120.266-45.995l149.526,149.536
				c2.083,2.083,4.813,3.125,7.542,3.125c2.729,0,5.458-1.042,7.542-3.125C470.375,462.042,470.375,455.292,466.208,451.125z
				 M181.333,341.333c-88.229,0-160-71.771-160-160s71.771-160,160-160s160,71.771,160,160S269.562,341.333,181.333,341.333z"/>
		</g>
	</g>
</g>
<g>
</g>
<g>
</g>
<g>
</g>
<g>
</g>
<g>
</g>
<g>
</g>
<g>
</g>
<g>
</g>
<g>
</g>
<g>
</g>
<g>
</g>
<g>
</g>
<g>
</g>
<g>
</g>
<g>
</g>
</svg>
