<?xml version="1.0" encoding="iso-8859-1"?>
<!-- Generator: Adobe Illustrator 19.0.0, SVG Export Plug-In . SVG Version: 6.00 Build 0)  -->
<svg version="1.1" id="Layer_1" xmlns="http://www.w3.org/2000/svg" xmlns:xlink="http://www.w3.org/1999/xlink" x="0px" y="0px"
	 viewBox="0 0 503.497 503.497" style="enable-background:new 0 0 503.497 503.497;" xml:space="preserve">
<g transform="translate(1 1)">
	<path style="fill:#AE938D;" d="M72.386,37.415v290.133H4.12v-102.4l17.067-17.067L4.12,191.015v-153.6
		c0-18.773,15.36-34.133,34.133-34.133S72.386,18.642,72.386,37.415"/>
	<path style="fill:#FFD0A1;" d="M430.786,361.682v85.333H362.52l-8.533,8.533l-8.533-8.533h-204.8v17.067
		c0,18.773-15.36,34.133-34.133,34.133s-34.133-15.36-34.133-34.133v-51.2l17.067-17.067l-17.067-17.067v-51.2V37.415
		c0-18.773-15.36-34.133-34.133-34.133h358.4c18.773,0,34.133,15.36,34.133,34.133v102.4h-34.133l34.133,34.133v153.6
		l-17.067,17.067L430.786,361.682z"/>
	<path style="fill:#E4F2DE;" d="M499.053,447.015v17.067c0,18.773-15.36,34.133-34.133,34.133h-358.4
		c18.773,0,34.133-15.36,34.133-34.133v-17.067h204.8l8.533,8.533l8.533-8.533h68.267H499.053z"/>
</g>
<path style="fill:#51565F;" d="M465.92,503.482h-307.2c-2.56,0-4.267-1.707-4.267-4.267c0-2.56,1.707-4.267,4.267-4.267h307.2
	c16.213,0,29.867-13.653,29.867-29.867v-12.8h-130.56l-7.68,7.68c-1.707,1.707-4.267,1.707-5.973,0l-7.68-7.68H145.067v12.8
	c0,21.333-17.067,38.4-38.4,38.4s-38.4-17.067-38.4-38.4v-51.2c0-0.853,0.853-2.56,0.853-3.413l13.653-13.653L69.12,383.162
	c-0.853-0.853-0.853-1.707-0.853-3.413V38.415c0-16.213-13.653-29.867-29.867-29.867S8.533,22.202,8.533,38.415v151.893
	l16.213,16.213c1.707,1.707,1.707,4.267,0,5.973L8.533,228.709v96.427H38.4c2.56,0,4.267,1.707,4.267,4.267
	c0,2.56-1.707,4.267-4.267,4.267H4.267c-2.56,0-4.267-1.707-4.267-4.267v-102.4c0-0.853,0.853-2.56,0.853-3.413l13.653-13.653
	L0.853,196.282C0,195.428,0,194.575,0,192.868v-153.6c0-21.333,17.067-38.4,38.4-38.4s38.4,17.067,38.4,38.4v339.627l16.213,16.213
	c1.707,1.707,1.707,4.267,0,5.973L76.8,417.295v49.493c0,16.213,13.653,29.867,29.867,29.867s29.867-13.653,29.867-29.867v-17.067
	c0-2.56,1.707-4.267,4.267-4.267h204.8c0.853,0,2.56,0.853,3.413,0.853l5.12,5.12l5.12-5.12c0.853-0.853,1.707-0.853,3.413-0.853
	H499.2c2.56,0,4.267,1.707,4.267,4.267v17.067C504.32,486.415,487.253,503.482,465.92,503.482z M431.786,418.149
	c-2.56,0-4.267-1.707-4.267-4.267v-49.493l-16.213-16.213c-1.707-1.707-1.707-4.267,0-5.973l16.213-16.213V175.802l-33.28-33.28
	c-0.853-0.853-1.707-3.413-0.853-4.267c0.853-0.853,2.56-2.56,4.267-2.56h29.867v-97.28c0-16.213-13.653-29.867-29.867-29.867
	H98.986c-2.56,0-4.267-1.707-4.267-4.267s1.707-4.267,4.267-4.267h298.667c21.333,0,38.4,17.067,38.4,38.4v102.4
	c0,2.56-1.707,4.267-4.267,4.267h-23.893l26.453,26.453c0.853,0.853,0.853,1.707,0.853,3.413v153.6c0,0.853-0.853,2.56-0.853,3.413
	l-13.653,13.653l13.653,13.653c0.853,0.853,0.853,1.707,0.853,3.413v51.2C436.053,416.442,434.346,418.149,431.786,418.149z
	 M312.32,384.015h-34.133c-2.56,0-4.267-1.707-4.267-4.267c0-2.56,1.707-4.267,4.267-4.267h34.133c2.56,0,4.267,1.707,4.267,4.267
	C316.586,382.309,314.88,384.015,312.32,384.015z M244.053,384.015h-102.4c-2.56,0-4.267-1.707-4.267-4.267
	c0-2.56,1.707-4.267,4.267-4.267h102.4c2.56,0,4.267,1.707,4.267,4.267C248.32,382.309,246.613,384.015,244.053,384.015z
	 M346.453,332.815h-102.4c-2.56,0-4.267-1.707-4.267-4.267s1.707-4.267,4.267-4.267h102.4c2.56,0,4.267,1.707,4.267,4.267
	S349.013,332.815,346.453,332.815z M209.92,332.815h-17.067c-2.56,0-4.267-1.707-4.267-4.267s1.707-4.267,4.267-4.267h17.067
	c2.56,0,4.267,1.707,4.267,4.267S212.48,332.815,209.92,332.815z M158.72,332.815h-17.067c-2.56,0-4.267-1.707-4.267-4.267
	s1.707-4.267,4.267-4.267h17.067c2.56,0,4.267,1.707,4.267,4.267S161.28,332.815,158.72,332.815z M329.386,281.615h-51.2
	c-2.56,0-4.267-1.707-4.267-4.267c0-2.56,1.707-4.267,4.267-4.267h51.2c2.56,0,4.267,1.707,4.267,4.267
	C333.653,279.909,331.947,281.615,329.386,281.615z M244.053,281.615h-17.067c-2.56,0-4.267-1.707-4.267-4.267
	c0-2.56,1.707-4.267,4.267-4.267h17.067c2.56,0,4.267,1.707,4.267,4.267C248.32,279.909,246.613,281.615,244.053,281.615z
	 M192.853,281.615h-51.2c-2.56,0-4.267-1.707-4.267-4.267c0-2.56,1.707-4.267,4.267-4.267h51.2c2.56,0,4.267,1.707,4.267,4.267
	C197.12,279.909,195.413,281.615,192.853,281.615z M346.453,230.415h-68.267c-2.56,0-4.267-1.707-4.267-4.267
	c0-2.56,1.707-4.267,4.267-4.267h68.267c2.56,0,4.267,1.707,4.267,4.267C350.72,228.709,349.013,230.415,346.453,230.415z
	 M244.053,230.415h-102.4c-2.56,0-4.267-1.707-4.267-4.267c0-2.56,1.707-4.267,4.267-4.267h102.4c2.56,0,4.267,1.707,4.267,4.267
	C248.32,228.709,246.613,230.415,244.053,230.415z M329.386,179.215h-102.4c-2.56,0-4.267-1.707-4.267-4.267
	c0-2.56,1.707-4.267,4.267-4.267h102.4c2.56,0,4.267,1.707,4.267,4.267C333.653,177.509,331.947,179.215,329.386,179.215z
	 M192.853,179.215h-51.2c-2.56,0-4.267-1.707-4.267-4.267c0-2.56,1.707-4.267,4.267-4.267h51.2c2.56,0,4.267,1.707,4.267,4.267
	C197.12,177.509,195.413,179.215,192.853,179.215z M244.053,128.015h-102.4c-2.56,0-4.267-1.707-4.267-4.267
	s1.707-4.267,4.267-4.267h102.4c2.56,0,4.267,1.707,4.267,4.267S246.613,128.015,244.053,128.015z"/>
<g>
</g>
<g>
</g>
<g>
</g>
<g>
</g>
<g>
</g>
<g>
</g>
<g>
</g>
<g>
</g>
<g>
</g>
<g>
</g>
<g>
</g>
<g>
</g>
<g>
</g>
<g>
</g>
<g>
</g>
</svg>
